<svg xmlns="http://www.w3.org/2000/svg" xmlns:xlink="http://www.w3.org/1999/xlink" width="1000" zoomAndPan="magnify" viewBox="0 0 750 165.000002" height="220" preserveAspectRatio="xMidYMid meet" version="1.0"><defs><g/><clipPath id="28d457bbf8"><path d="M 2.257812 0 L 453.453125 0 L 453.453125 164 L 2.257812 164 Z M 2.257812 0 " clip-rule="nonzero"/></clipPath></defs><g clip-path="url(#28d457bbf8)"><path fill="#87ceeb" d="M 2.257812 0 L 453.242188 0 L 453.242188 163.785156 L 2.257812 163.785156 Z M 2.257812 0 " fill-opacity="1" fill-rule="nonzero"/></g><g fill="#082032" fill-opacity="1"><g transform="translate(37.692718, 108.319112)"><g><path d="M 33.835938 1.066406 C 47.796875 1.066406 59.132812 -7.390625 62.582031 -20.203125 L 54.945312 -20.203125 C 51.988281 -11.578125 43.855469 -6.160156 34.082031 -6.160156 C 21.269531 -6.160156 12.15625 -15.441406 12.15625 -28.746094 C 12.15625 -42.050781 21.269531 -51.332031 34.082031 -51.332031 C 43.609375 -51.332031 51.414062 -46.238281 54.367188 -37.941406 L 62.089844 -37.941406 C 58.3125 -50.589844 47.386719 -58.558594 33.835938 -58.558594 C 16.917969 -58.558594 4.761719 -46.074219 4.761719 -28.746094 C 4.761719 -11.414062 16.917969 1.066406 33.835938 1.066406 Z M 33.835938 1.066406 "/></g></g></g><g fill="#082032" fill-opacity="1"><g transform="translate(110.92898, 108.319112)"><g><path d="M 8.378906 0 L 15.605469 0 L 15.605469 -20.613281 L 28.253906 -20.613281 L 42.296875 0 L 51 0 L 36.546875 -21.351562 C 44.925781 -23.40625 50.097656 -29.730469 50.097656 -39.011719 C 50.097656 -50.425781 42.214844 -57.488281 30.304688 -57.488281 L 8.378906 -57.488281 Z M 15.605469 -27.511719 L 15.605469 -50.589844 L 29.484375 -50.589844 C 37.859375 -50.589844 42.707031 -46.320312 42.707031 -39.011719 C 42.707031 -31.703125 37.859375 -27.511719 29.484375 -27.511719 Z M 15.605469 -27.511719 "/></g></g></g><g fill="#082032" fill-opacity="1"><g transform="translate(173.081676, 108.319112)"><g><path d="M 22.996094 0 L 30.058594 0 L 30.058594 -20.695312 L 51.660156 -57.488281 L 43.527344 -57.488281 L 26.609375 -28.417969 L 19.136719 -41.394531 L 9.773438 -57.488281 L 1.394531 -57.488281 L 22.996094 -20.695312 Z M 22.996094 0 "/></g></g></g><g fill="#082032" fill-opacity="1"><g transform="translate(232.360835, 108.319112)"><g><path d="M 8.378906 0 L 15.605469 0 L 15.605469 -18.890625 L 27.839844 -18.890625 C 40.816406 -18.890625 49.195312 -26.363281 49.195312 -38.191406 C 49.195312 -49.933594 40.816406 -57.488281 27.839844 -57.488281 L 8.378906 -57.488281 Z M 15.605469 -25.625 L 15.605469 -50.589844 L 27.675781 -50.589844 C 36.957031 -50.589844 41.804688 -46.320312 41.804688 -38.109375 C 41.804688 -29.894531 36.957031 -25.625 27.675781 -25.625 Z M 15.605469 -25.625 "/></g></g></g><g fill="#082032" fill-opacity="1"><g transform="translate(291.065307, 108.319112)"><g><path d="M 22.257812 0 L 29.484375 0 L 29.484375 -50.589844 L 48.867188 -50.589844 L 48.867188 -57.488281 L 2.792969 -57.488281 L 2.792969 -50.589844 L 22.257812 -50.589844 Z M 22.257812 0 "/></g></g></g><g fill="#082032" fill-opacity="1"><g transform="translate(349.030839, 108.319112)"><g><path d="M 34.492188 1.066406 C 51.988281 1.066406 64.304688 -11.25 64.304688 -28.746094 C 64.304688 -46.238281 51.988281 -58.558594 34.492188 -58.558594 C 17 -58.558594 4.761719 -46.238281 4.761719 -28.746094 C 4.761719 -11.25 17 1.066406 34.492188 1.066406 Z M 12.15625 -28.746094 C 12.15625 -42.132812 21.269531 -51.332031 34.492188 -51.332031 C 47.714844 -51.332031 56.832031 -42.132812 56.832031 -28.746094 C 56.832031 -15.359375 47.714844 -6.160156 34.492188 -6.160156 C 21.269531 -6.160156 12.15625 -15.359375 12.15625 -28.746094 Z M 12.15625 -28.746094 "/></g></g></g><g fill="#87ceeb" fill-opacity="1"><g transform="translate(507.814771, 109.453017)"><g><path d="M 6.078125 0 L 46.15625 0 L 46.15625 -15.359375 L 22.667969 -15.359375 L 22.667969 -57.488281 L 6.078125 -57.488281 Z M 6.078125 0 "/></g></g></g><g fill="#87ceeb" fill-opacity="1"><g transform="translate(556.019731, 109.453017)"><g><path d="M 6.078125 0 L 22.667969 0 L 22.667969 -57.488281 L 6.078125 -57.488281 Z M 6.078125 0 "/></g></g></g><g fill="#87ceeb" fill-opacity="1"><g transform="translate(584.762056, 109.453017)"><g><path d="M 26.691406 1.230469 C 40.980469 1.230469 49.441406 -5.503906 49.441406 -16.835938 C 49.441406 -26.363281 43.28125 -31.945312 29.320312 -35.066406 C 21.925781 -36.710938 19.21875 -38.515625 19.21875 -41.472656 C 19.21875 -44.265625 21.679688 -45.992188 25.542969 -45.992188 C 30.140625 -45.992188 32.769531 -43.609375 32.769531 -39.257812 L 48.371094 -39.257812 C 48.371094 -51.082031 39.339844 -58.71875 25.210938 -58.71875 C 11.660156 -58.71875 3.285156 -51.984375 3.285156 -41.144531 C 3.285156 -31.453125 9.609375 -25.457031 22.585938 -22.996094 C 29.566406 -21.597656 32.933594 -19.464844 32.933594 -16.179688 C 32.933594 -13.304688 30.46875 -11.660156 26.445312 -11.660156 C 21.679688 -11.660156 18.890625 -14.207031 18.890625 -18.640625 L 2.875 -18.640625 C 2.875 -6.242188 11.742188 1.230469 26.691406 1.230469 Z M 26.691406 1.230469 "/></g></g></g><g fill="#87ceeb" fill-opacity="1"><g transform="translate(637.237312, 109.453017)"><g><path d="M 19.792969 0 L 36.300781 0 L 36.300781 -42.128906 L 53.792969 -42.128906 L 53.792969 -57.488281 L 2.300781 -57.488281 L 2.300781 -42.128906 L 19.792969 -42.128906 Z M 19.792969 0 "/></g></g></g></svg>